REM DIRINDEX 1\2,1\3,1\4,1\5
REM DIRNAME folder01,folder02,folder03,folder04,folder05
TITLE ""
FILE "169.mp3" MP3
  TRACK 01 AUDIO
    TITLE "0:"
    INDEX 01 00:00:00
  TRACK 02 AUDIO
    TITLE "2:cjc046_5071"
    INDEX 01 00:00:13
  TRACK 03 AUDIO
    TITLE "0:"
    INDEX 01 00:01:26
  TRACK 04 AUDIO
    TITLE "3:cjc046_5072"
    INDEX 01 00:01:48
  TRACK 05 AUDIO
    TITLE "0:"
    INDEX 01 00:03:37
  TRACK 06 AUDIO
    TITLE "4:cjc046_5073"
    INDEX 01 00:03:49
  TRACK 07 AUDIO
    TITLE "0:"
    INDEX 01 00:04:60
  TRACK 08 AUDIO
    TITLE "2:cjc046_5074"
    INDEX 01 00:05:73
  TRACK 09 AUDIO
    TITLE "0:"
    INDEX 01 00:07:13
  TRACK 10 AUDIO
    TITLE "3:cjc046_5075"
    INDEX 01 00:07:25
  TRACK 11 AUDIO
    TITLE "0:"
    INDEX 01 00:08:40
  TRACK 12 AUDIO
    TITLE "4:cjc046_5076"
    INDEX 01 00:08:54
  TRACK 13 AUDIO
    TITLE "0:"
    INDEX 01 00:09:67
  TRACK 14 AUDIO
    TITLE "2:cjc046_5077"
    INDEX 01 00:11:01
  TRACK 15 AUDIO
    TITLE "0:"
    INDEX 01 00:12:16
  TRACK 16 AUDIO
    TITLE "3:cjc046_5078"
    INDEX 01 00:12:38
  TRACK 17 AUDIO
    TITLE "0:"
    INDEX 01 00:14:17
  TRACK 18 AUDIO
    TITLE "4:cjc046_5079"
    INDEX 01 00:14:35
  TRACK 19 AUDIO
    TITLE "0:"
    INDEX 01 00:15:48
  TRACK 20 AUDIO
    TITLE "2:cjc046_5080"
    INDEX 01 00:16:59
  TRACK 21 AUDIO
    TITLE "0:"
    INDEX 01 00:17:70
  TRACK 22 AUDIO
    TITLE "3:cjc046_5081"
    INDEX 01 00:18:11
  TRACK 23 AUDIO
    TITLE "0:"
    INDEX 01 00:18:64
  TRACK 24 AUDIO
    TITLE "4:cjc046_5082"
    INDEX 01 00:19:09
  TRACK 25 AUDIO
    TITLE "0:"
    INDEX 01 00:20:18
  TRACK 26 AUDIO
    TITLE "2:cjc046_5083"
    INDEX 01 00:21:25
  TRACK 27 AUDIO
    TITLE "0:"
    INDEX 01 00:22:46
  TRACK 28 AUDIO
    TITLE "3:cjc046_5084"
    INDEX 01 00:22:68
  TRACK 29 AUDIO
    TITLE "0:"
    INDEX 01 00:24:33
  TRACK 30 AUDIO
    TITLE "4:cjc046_5085"
    INDEX 01 00:24:53
  TRACK 31 AUDIO
    TITLE "0:"
    INDEX 01 00:26:01
  TRACK 32 AUDIO
    TITLE "2:cjc046_5086"
    INDEX 01 00:27:06
  TRACK 33 AUDIO
    TITLE "0:"
    INDEX 01 00:28:37
  TRACK 34 AUDIO
    TITLE "3:cjc046_5087"
    INDEX 01 00:28:60
  TRACK 35 AUDIO
    TITLE "0:"
    INDEX 01 00:30:12
  TRACK 36 AUDIO
    TITLE "4:cjc046_5088"
    INDEX 01 00:30:24
  TRACK 37 AUDIO
    TITLE "0:"
    INDEX 01 00:31:55
  TRACK 38 AUDIO
    TITLE "2:cjc046_5089"
    INDEX 01 00:32:68
  TRACK 39 AUDIO
    TITLE "0:"
    INDEX 01 00:34:08
  TRACK 40 AUDIO
    TITLE "3:cjc046_5090"
    INDEX 01 00:34:26
  TRACK 41 AUDIO
    TITLE "0:"
    INDEX 01 00:35:57
  TRACK 42 AUDIO
    TITLE "4:cjc046_5091"
    INDEX 01 00:35:72
  TRACK 43 AUDIO
    TITLE "0:"
    INDEX 01 00:37:14
  TRACK 44 AUDIO
    TITLE "2:cjc046_5092"
    INDEX 01 00:38:20
  TRACK 45 AUDIO
    TITLE "0:"
    INDEX 01 00:39:25
  TRACK 46 AUDIO
    TITLE "3:cjc046_5093"
    INDEX 01 00:39:41
  TRACK 47 AUDIO
    TITLE "0:"
    INDEX 01 00:41:04
  TRACK 48 AUDIO
    TITLE "4:cjc046_5094"
    INDEX 01 00:41:18
  TRACK 49 AUDIO
    TITLE "0:"
    INDEX 01 00:42:23
  TRACK 50 AUDIO
    TITLE "2:cjc046_5095"
    INDEX 01 00:43:33
  TRACK 51 AUDIO
    TITLE "0:"
    INDEX 01 00:44:52
  TRACK 52 AUDIO
    TITLE "3:cjc046_5096"
    INDEX 01 00:44:71
  TRACK 53 AUDIO
    TITLE "0:"
    INDEX 01 00:46:11
  TRACK 54 AUDIO
    TITLE "4:cjc046_5097"
    INDEX 01 00:46:27
  TRACK 55 AUDIO
    TITLE "0:"
    INDEX 01 00:47:46
  TRACK 56 AUDIO
    TITLE "2:cjc046_5098"
    INDEX 01 00:48:55
  TRACK 57 AUDIO
    TITLE "0:"
    INDEX 01 00:49:55
  TRACK 58 AUDIO
    TITLE "3:cjc046_5099"
    INDEX 01 00:49:74
  TRACK 59 AUDIO
    TITLE "0:"
    INDEX 01 00:51:03
  TRACK 60 AUDIO
    TITLE "4:cjc046_5100"
    INDEX 01 00:51:16
  TRACK 61 AUDIO
    TITLE "0:"
    INDEX 01 00:52:16
  TRACK 62 AUDIO
    TITLE "2:cjc046_5101"
    INDEX 01 00:53:23
  TRACK 63 AUDIO
    TITLE "0:"
    INDEX 01 00:54:40
  TRACK 64 AUDIO
    TITLE "3:cjc046_5102"
    INDEX 01 00:54:64
  TRACK 65 AUDIO
    TITLE "0:"
    INDEX 01 00:56:63
  TRACK 66 AUDIO
    TITLE "4:cjc046_5103"
    INDEX 01 00:57:05
  TRACK 67 AUDIO
    TITLE "0:"
    INDEX 01 00:58:24
  TRACK 68 AUDIO
    TITLE "2:cjc046_5104"
    INDEX 01 00:59:34
  TRACK 69 AUDIO
    TITLE "0:"
    INDEX 01 01:00:33
  TRACK 70 AUDIO
    TITLE "3:cjc046_5105"
    INDEX 01 01:00:55
  TRACK 71 AUDIO
    TITLE "0:"
    INDEX 01 01:02:05
  TRACK 72 AUDIO
    TITLE "4:cjc046_5106"
    INDEX 01 01:02:24
  TRACK 73 AUDIO
    TITLE "0:"
    INDEX 01 01:03:22
  TRACK 74 AUDIO
    TITLE "2:cjc046_5107"
    INDEX 01 01:04:35
  TRACK 75 AUDIO
    TITLE "0:"
    INDEX 01 01:05:52
  TRACK 76 AUDIO
    TITLE "3:cjc046_5108"
    INDEX 01 01:05:73
  TRACK 77 AUDIO
    TITLE "0:"
    INDEX 01 01:07:04
  TRACK 78 AUDIO
    TITLE "4:cjc046_5109"
    INDEX 01 01:07:17
  TRACK 79 AUDIO
    TITLE "0:"
    INDEX 01 01:08:36
  TRACK 80 AUDIO
    TITLE "2:cjc046_5110"
    INDEX 01 01:09:46
  TRACK 81 AUDIO
    TITLE "0:"
    INDEX 01 01:10:55
  TRACK 82 AUDIO
    TITLE "3:cjc046_5111"
    INDEX 01 01:11:00
  TRACK 83 AUDIO
    TITLE "0:"
    INDEX 01 01:12:38
  TRACK 84 AUDIO
    TITLE "4:cjc046_5112"
    INDEX 01 01:12:54
  TRACK 85 AUDIO
    TITLE "0:"
    INDEX 01 01:13:63
  TRACK 86 AUDIO
    TITLE "2:cjc046_5113"
    INDEX 01 01:14:72
  TRACK 87 AUDIO
    TITLE "0:"
    INDEX 01 01:16:28
  TRACK 88 AUDIO
    TITLE "3:cjc046_5114"
    INDEX 01 01:16:46
  TRACK 89 AUDIO
    TITLE "0:"
    INDEX 01 01:18:56
  TRACK 90 AUDIO
    TITLE "4:cjc046_5115"
    INDEX 01 01:18:66
  TRACK 91 AUDIO
    TITLE "0:"
    INDEX 01 01:20:22
  TRACK 92 AUDIO
    TITLE "2:cjc046_5116"
    INDEX 01 01:21:27
  TRACK 93 AUDIO
    TITLE "0:"
    INDEX 01 01:22:42
  TRACK 94 AUDIO
    TITLE "3:cjc046_5117"
    INDEX 01 01:22:60
  TRACK 95 AUDIO
    TITLE "0:"
    INDEX 01 01:23:71
  TRACK 96 AUDIO
    TITLE "4:cjc046_5118"
    INDEX 01 01:24:06
  TRACK 97 AUDIO
    TITLE "0:"
    INDEX 01 01:25:19
